<svg width="24" height="18" viewBox="0 0 24 18" fill="none" xmlns="http://www.w3.org/2000/svg">
<path d="M5.05499 0.245444C4.98913 0.1712 4.90918 0.110767 4.81979 0.0676472C4.7304 0.0245275 4.63334 -0.000421266 4.53423 -0.00575291C4.43513 -0.0110845 4.33595 0.00330681 4.24245 0.0365872C4.14895 0.0698676 4.06298 0.121375 3.98953 0.188124C3.91608 0.254873 3.85661 0.335537 3.81457 0.425439C3.77252 0.515341 3.74874 0.612694 3.7446 0.711856C3.74045 0.811017 3.75603 0.910015 3.79043 1.00311C3.82483 1.09621 3.87737 1.18155 3.94499 1.25419L5.74874 3.23888C2.34374 5.32857 0.879366 8.54982 0.814679 8.69607C0.772035 8.79199 0.75 8.89579 0.75 9.00076C0.75 9.10573 0.772035 9.20953 0.814679 9.30544C0.847491 9.37951 1.64155 11.1401 3.40687 12.9054C5.75905 15.2567 8.72999 16.4998 12 16.4998C13.6806 16.5094 15.3442 16.1634 16.8816 15.4845L18.9441 17.7542C19.0099 17.8284 19.0899 17.8889 19.1793 17.932C19.2686 17.9751 19.3657 18.0001 19.4648 18.0054C19.5639 18.0107 19.6631 17.9963 19.7566 17.9631C19.8501 17.9298 19.9361 17.8783 20.0095 17.8115C20.083 17.7448 20.1424 17.6641 20.1845 17.5742C20.2265 17.4843 20.2503 17.3869 20.2544 17.2878C20.2586 17.1886 20.243 17.0896 20.2086 16.9965C20.1742 16.9034 20.1217 16.8181 20.0541 16.7454L5.05499 0.245444ZM9.49218 7.35544L13.3987 11.6539C12.8105 11.9634 12.136 12.0687 11.4814 11.9534C10.8268 11.838 10.229 11.5085 9.78189 11.0166C9.33481 10.5247 9.06377 9.89818 9.01134 9.23552C8.9589 8.57286 9.12803 7.91156 9.49218 7.35544ZM12 14.9998C9.11437 14.9998 6.59343 13.9508 4.50655 11.8826C3.64997 11.0314 2.92145 10.0603 2.34374 8.99982C2.78343 8.17576 4.18687 5.86951 6.7828 4.37044L8.4703 6.22201C7.81699 7.05873 7.48052 8.09948 7.52036 9.16029C7.56021 10.2211 7.97379 11.2337 8.68802 12.019C9.40225 12.8044 10.3711 13.312 11.4234 13.4521C12.4757 13.5921 13.5436 13.3557 14.4384 12.7845L15.8194 14.3033C14.6006 14.7708 13.3053 15.0071 12 14.9998ZM12.5625 6.05326C12.3671 6.01596 12.1944 5.90256 12.0826 5.73799C11.9708 5.57343 11.9289 5.37119 11.9662 5.17576C12.0035 4.98032 12.1169 4.80771 12.2815 4.6959C12.4461 4.58408 12.6483 4.54221 12.8437 4.57951C13.7996 4.76482 14.67 5.25418 15.325 5.97459C15.98 6.695 16.3846 7.60786 16.4784 8.57701C16.4969 8.77505 16.436 8.97233 16.3091 9.12547C16.1822 9.2786 15.9996 9.37504 15.8016 9.39357C15.7781 9.39495 15.7547 9.39495 15.7312 9.39357C15.5438 9.39437 15.3628 9.32495 15.224 9.19897C15.0852 9.07299 14.9986 8.8996 14.9812 8.71294C14.9181 8.06831 14.6486 7.46127 14.2128 6.98208C13.7771 6.50288 13.1982 6.17713 12.5625 6.05326ZM23.1825 9.30544C23.1431 9.39357 22.1934 11.4964 20.055 13.4117C19.9819 13.4792 19.8961 13.5315 19.8027 13.5656C19.7092 13.5996 19.6099 13.6148 19.5105 13.6101C19.4111 13.6053 19.3136 13.5809 19.2238 13.5382C19.1339 13.4954 19.0535 13.4352 18.9871 13.3611C18.9208 13.287 18.8698 13.2004 18.8373 13.1064C18.8047 13.0124 18.7912 12.9128 18.7975 12.8135C18.8037 12.7142 18.8297 12.6172 18.8739 12.528C18.918 12.4388 18.9795 12.3594 19.0547 12.2942C20.1038 11.3516 20.9851 10.2377 21.6609 8.99982C21.0819 7.93836 20.3518 6.96665 19.4934 6.11513C17.4066 4.04888 14.8856 2.99982 12 2.99982C11.392 2.99908 10.7849 3.04831 10.185 3.14701C10.0874 3.16426 9.98741 3.16201 9.89073 3.14039C9.79404 3.11877 9.70259 3.07821 9.62167 3.02105C9.54074 2.96388 9.47195 2.89125 9.41925 2.80735C9.36656 2.72345 9.33101 2.62994 9.31466 2.53222C9.29832 2.4345 9.30149 2.33451 9.32401 2.23803C9.34652 2.14155 9.38793 2.05048 9.44584 1.97009C9.50375 1.8897 9.57702 1.82158 9.6614 1.76967C9.74579 1.71775 9.83963 1.68307 9.93749 1.66763C10.6192 1.55507 11.309 1.49894 12 1.49982C15.27 1.49982 18.2409 2.74294 20.5931 5.09513C22.3584 6.86044 23.1525 8.62201 23.1853 8.69607C23.2279 8.79199 23.25 8.89579 23.25 9.00076C23.25 9.10573 23.2279 9.20953 23.1853 9.30544H23.1825Z" fill="#404FDB"/>
</svg>
