<?xml version="1.0" encoding="UTF-8"?> <svg xmlns="http://www.w3.org/2000/svg" width="166" height="166" viewBox="0 0 166 166" fill="none"><mask id="mask0_2001_148" style="mask-type:luminance" maskUnits="userSpaceOnUse" x="0" y="0" width="166" height="166"><path d="M83.2478 165.761C128.819 165.761 165.761 128.82 165.761 83.2504C165.761 37.6812 128.819 0.740112 83.2478 0.740112C37.6769 0.740112 0.734375 37.6812 0.734375 83.2504C0.734375 128.82 37.6769 165.761 83.2478 165.761Z" fill="white"></path></mask><g mask="url(#mask0_2001_148)"><path d="M164.609 27.1129C164.169 27.0078 163.724 26.9178 163.279 26.8428C162.834 26.7678 162.384 26.7028 161.929 26.6578C161.649 23.0473 161.434 19.2719 160.048 15.8814C159.163 13.7112 157.673 12.356 155.538 11.4659C155.538 11.0008 155.523 10.5508 155.408 10.0957C155.163 9.1306 154.643 8.13548 153.752 7.63042C151.802 6.53028 148.652 6.39526 146.441 6.31525C144.211 6.23524 141.91 6.24524 139.685 6.41526C137.66 6.57028 135.639 6.85032 133.609 6.96034C131.099 7.09035 128.583 7.07535 126.073 7.20037C123.888 7.31038 121.727 7.55041 119.552 7.76043C118.067 7.90545 116.416 7.93046 114.976 8.32051C114.596 7.60542 114.301 6.84032 113.941 6.11023C112.756 3.68993 111.596 1.25463 110.46 -1.19568C109.395 -3.43596 108.165 -5.60123 107.135 -7.85151H105.775C108.835 -2.60586 110.975 3.15987 113.881 8.48553C113.491 8.55554 113.091 8.60554 112.711 8.70555C111.486 9.02559 110.27 9.70068 109.645 10.8358C109.09 11.8409 109.025 12.9811 109.335 14.0662C107.345 14.3763 105.34 14.5163 103.364 14.9063C102.894 13.6162 102.599 12.216 102.219 10.8908C101.774 9.33063 101.249 7.79044 100.754 6.24025C99.9586 3.75494 99.0385 1.33463 98.1584 -1.12067C97.3532 -3.36095 96.6031 -5.61624 95.783 -7.85151H94.7078C95.2279 -5.67624 96.123 -3.54097 96.8681 -1.43071L100.214 8.34051C101.039 10.8258 101.659 13.3761 102.394 15.8915C103.999 21.1971 105.49 26.5378 106.855 31.9084C107.055 32.7135 108.12 36.539 108.08 37.0241C108.07 37.1791 108.09 37.1141 107.945 37.2391L107.74 37.2241C107.48 37.0341 107.355 36.8291 107.25 36.519C106.925 35.5439 106.915 34.3188 106.75 33.2886C106.57 32.1935 106.245 31.1283 105.935 30.0632C104.519 25.2126 103.134 20.357 101.594 15.5464C101.259 14.5013 100.864 13.4761 100.524 12.431C100.099 11.1158 99.7136 9.78569 99.2585 8.47552C98.9235 7.5054 98.5234 6.55529 98.2034 5.58517C97.1082 2.25975 95.998 -1.05567 94.7928 -4.34107C94.3577 -5.52122 94.0677 -6.71137 93.5326 -7.86151H76.3448C77.3749 -5.93127 78.5501 -4.11104 79.6203 -2.20581L89.2469 15.0664C89.802 16.0815 90.2771 17.1416 90.8121 18.1667C92.7825 21.9622 94.6678 25.7827 96.5481 29.6282C97.6432 31.8734 98.8535 34.0637 99.9486 36.309C101.404 39.3044 102.644 42.4298 103.859 45.5301C104.314 46.6903 104.824 47.8254 105.26 48.9956C105.725 50.2407 106.17 51.5109 106.6 52.766C106.875 53.5711 107.095 54.4763 107.52 55.2163C110.58 55.7864 113.421 57.7617 116.071 59.3019C117.797 60.282 119.512 61.2721 121.217 62.2822C122.212 62.8773 123.387 63.7424 124.438 64.1825C124.798 64.3325 125.283 64.4375 125.673 64.4025C125.878 64.3825 125.898 64.3975 126.033 64.2375C126.008 64.1275 126.013 64.1175 125.953 64.0024C125.838 63.7824 125.528 63.5624 125.328 63.4274C124.588 62.9073 123.713 62.5273 122.942 62.0422C119.607 59.9569 116.181 57.8167 112.656 56.0765C111.451 55.4814 110.175 55.0263 108.915 54.5563C108.455 53.6962 108.16 52.751 107.82 51.8359C107.195 50.1457 106.585 48.4405 105.88 46.7803C106.61 47.0703 107.34 47.3554 108.025 47.7504C109.29 48.4855 110.425 49.5056 111.551 50.4358C113.771 52.271 116.206 54.4412 118.552 56.0615C120.182 57.1866 121.882 58.2667 123.653 59.1618C124.353 59.5169 125.178 59.6419 125.843 60.062C126.448 60.442 126.868 61.2271 127.193 61.8422C129.498 66.2327 130.029 71.5134 130.919 76.329C131.029 76.924 131.194 77.5091 131.324 78.1042C130.554 78.1542 129.994 78.1292 129.303 77.7142C127.428 76.584 125.953 74.6638 124.243 73.2786C123.577 72.7385 122.877 72.1785 122.137 71.7434C121.222 71.2033 120.212 70.7683 119.352 70.1432C118.517 69.5331 115.596 66.7028 114.846 66.6678C114.636 66.7678 114.611 66.7978 114.476 66.9928C114.461 67.1478 114.476 67.2679 114.566 67.4029C115.366 68.608 118.247 70.8333 119.452 71.8534C120.507 72.7535 121.572 73.7137 122.577 74.6688C123.087 75.1538 123.528 75.7139 123.973 76.259C123.853 76.829 123.703 77.5141 123.392 78.0092C122.852 78.8643 121.952 79.0093 121.042 79.2343C121.012 79.2243 120.982 79.2143 120.957 79.1993C120.912 79.1793 120.862 79.1593 120.817 79.1393C119.217 78.4842 117.666 76.729 116.291 75.6489C115.561 75.0738 114.741 74.6038 113.936 74.1487C113.456 73.8737 112.881 73.5186 112.316 73.4886C112.031 73.4736 111.851 73.5386 111.631 73.7287V73.8837C111.806 74.1237 111.996 74.2937 112.241 74.4687C113.211 75.1538 114.286 75.6939 115.266 76.374C116.336 77.1191 117.226 78.1792 118.427 78.6943L118.757 79.8044C118.277 80.3545 117.817 80.8895 117.111 81.1446C116.576 81.3396 116.011 81.3096 115.481 81.1096C114.631 80.7895 113.906 80.1395 113.161 79.6344C112.196 78.9793 110.885 78.1242 109.85 77.6191C109.295 77.3491 108.305 76.9141 107.705 77.1591C107.57 77.2141 107.61 77.1941 107.555 77.3391C107.805 77.7842 112.441 80.6345 113.166 81.1346C113.476 81.3496 114.271 81.8047 114.336 82.1797C114.316 82.2047 114.296 82.2347 114.271 82.2597C113.701 82.8398 112.146 83.2698 111.36 83.2548C111 83.2448 110.59 83.2098 110.325 82.9448C110.265 82.7798 110.205 82.5898 110.115 82.4397C109.885 82.0547 109.005 81.7597 108.61 81.4896C107.475 80.7245 103.369 77.5691 102.334 77.3091C102.064 77.2391 101.804 77.2591 101.574 77.4291C101.409 77.5541 101.364 77.6592 101.324 77.8542C101.524 78.3942 103.239 79.0343 103.759 79.3694C104.589 79.9044 105.36 80.5845 106.145 81.1846C106.855 81.7247 107.61 82.2047 108.365 82.6798C107.39 83.6299 107.06 84.07 105.72 84.465C104.879 84.255 104.339 83.9849 103.689 83.4049C101.749 81.6747 99.9586 79.6944 98.6734 77.4291C97.9033 76.069 97.5032 74.3687 96.9381 72.8986C96.5981 72.0235 96.163 71.1883 95.7879 70.3282C95.3129 69.2381 94.8928 68.128 94.4277 67.0328C93.2125 64.1225 91.9173 61.2421 90.5471 58.4018C89.1769 55.5614 87.7267 52.761 86.2014 49.9957C85.5163 48.7305 84.8962 47.4404 84.1711 46.2002C83.0609 44.305 81.9507 42.3698 80.7455 40.5345C80.2304 39.7544 79.6103 39.0543 79.0752 38.2892C78.5952 37.5992 78.1851 36.8591 77.715 36.164C76.4898 34.3488 75.2446 32.5635 74.0744 30.7133C73.1843 29.3081 72.3892 27.8529 71.524 26.4328C70.2738 24.3775 68.9636 22.3623 67.6984 20.317C65.6481 16.9866 63.6127 13.6212 61.4024 10.3958C59.262 7.26537 56.5616 3.97497 54.1662 0.999595C52.8409 -0.64561 51.5908 -2.35083 50.2606 -3.99603C49.1954 -5.31119 48.0602 -6.58136 46.95 -7.86652H45.8548C47.29 -5.99628 48.7903 -4.20606 50.2556 -2.36583C53.006 1.0896 55.7365 4.57004 58.3919 8.10048C58.962 8.85557 59.5671 9.58566 60.1171 10.3558C61.8774 12.8211 63.4927 15.4364 65.0479 18.0367C65.8131 19.3119 66.8932 20.577 67.4733 21.9422C67.8584 22.8473 68.0134 23.8724 68.2535 24.8226C68.6435 26.3627 69.0886 27.8829 69.4937 29.4181C69.7037 30.2182 69.8388 31.0433 70.0888 31.8284C67.2633 32.3485 64.5278 33.0186 61.8424 34.0687C54.4862 36.9491 48.1752 42.5148 43.7245 48.9656C40.854 53.1261 38.6387 57.7967 36.9984 62.5673C36.2033 64.8776 35.6431 67.2578 35.0981 69.6381C34.678 71.4684 34.2379 73.2886 33.9229 75.1438C33.1728 79.5144 32.7327 84.615 32.8827 89.0356C32.9927 92.406 33.5378 95.8964 34.1479 99.2068C34.613 101.742 35.3431 104.262 36.0833 106.728C36.6083 108.483 37.0684 110.303 37.7335 112.003C37.8685 112.348 38.0086 112.694 38.1486 113.039C38.2886 113.384 38.4336 113.724 38.5837 114.064C38.7287 114.404 38.8837 114.744 39.0337 115.079C39.1887 115.419 39.3438 115.754 39.5038 116.089C39.6638 116.424 39.8288 116.759 39.9939 117.089C40.1589 117.419 40.3289 117.749 40.499 118.079C40.669 118.409 40.844 118.734 41.0241 119.059C41.2041 119.384 41.3841 119.709 41.5691 120.029C41.7542 120.349 41.9392 120.674 42.1292 120.99C42.3193 121.31 42.5093 121.625 42.7093 121.94C42.9044 122.255 43.1044 122.57 43.3044 122.88C43.5044 123.19 43.7095 123.5 43.9145 123.81C44.1195 124.12 44.3296 124.425 44.5446 124.73C44.7546 125.035 44.9697 125.335 45.1897 125.635C45.4098 125.935 45.6298 126.235 45.8498 126.53C46.0698 126.825 46.2999 127.12 46.5299 127.415C46.7599 127.705 46.99 127.995 47.225 128.285C47.4601 128.576 47.6951 128.861 47.9352 129.141C48.1752 129.426 48.4152 129.706 48.6603 129.986C48.9053 130.266 49.1504 130.541 49.4004 130.816C49.6505 131.091 49.9005 131.361 50.1555 131.631C50.4105 131.901 50.6656 132.171 50.9256 132.436C51.1857 132.701 51.4458 132.966 51.7108 133.226C51.9758 133.486 52.2409 133.746 52.5109 134.001C52.781 134.256 53.051 134.511 53.3261 134.761C53.6011 135.011 53.8762 135.261 54.1512 135.506C54.4313 135.751 54.7113 135.996 54.9913 136.236C55.2714 136.476 55.5564 136.717 55.8464 136.952C56.1315 137.187 56.4216 137.422 56.7116 137.652C57.0017 137.882 57.2967 138.112 57.5917 138.337C57.8868 138.562 58.1818 138.782 58.4819 139.002C58.7819 139.222 59.082 139.437 59.387 139.652C59.6821 139.852 59.9771 140.047 60.2722 140.242C60.5672 140.437 60.8673 140.627 61.1673 140.812C61.4674 140.997 61.7724 141.182 62.0775 141.362C62.3825 141.542 62.6876 141.722 62.9976 141.897C63.3077 142.072 63.6177 142.242 63.9278 142.412C64.2428 142.582 64.5529 142.742 64.8729 142.907C65.188 143.067 65.508 143.227 65.8281 143.382C66.1481 143.537 66.4682 143.687 66.7932 143.832C67.1183 143.977 67.4384 144.122 67.7634 144.262C68.0885 144.402 68.4185 144.542 68.7435 144.672C69.0736 144.808 69.4036 144.938 69.7337 145.063C70.0638 145.188 70.3988 145.313 70.7339 145.433C71.0689 145.553 71.404 145.668 71.739 145.778C72.0741 145.888 72.4142 145.998 72.7542 146.103C73.0943 146.208 73.4343 146.308 73.7744 146.408C74.1145 146.508 74.4595 146.598 74.7995 146.688C75.1446 146.778 75.4847 146.863 75.8297 146.948C76.1748 147.033 76.5198 147.113 76.8649 147.188C77.2099 147.263 77.56 147.338 77.9051 147.403C78.2551 147.473 78.6002 147.538 78.9502 147.598C79.3003 147.658 79.6503 147.718 80.0004 147.768C80.3504 147.823 80.7005 147.873 81.0556 147.918C81.4056 147.963 81.7607 148.008 82.1107 148.043C82.4658 148.083 82.8158 148.118 83.1709 148.148C83.5259 148.178 83.876 148.208 84.2311 148.228C84.5861 148.253 84.9412 148.273 85.2912 148.288C85.6463 148.303 86.0013 148.318 86.3564 148.323C86.7115 148.333 87.0665 148.338 87.4216 148.338C87.7766 148.338 88.1317 148.338 88.4868 148.328C88.8418 148.323 89.1969 148.313 89.5519 148.298C89.907 148.283 90.2621 148.268 90.6171 148.243C90.9722 148.223 91.3272 148.193 91.6773 148.168C93.0525 148.053 94.4427 147.948 95.803 147.698C102.944 146.388 112.456 141.892 118.437 137.752C119.882 136.752 121.172 135.621 122.522 134.506C129.588 136.451 136.51 136.331 143.636 134.841C145.116 134.531 146.586 134.226 148.036 133.796C150.292 133.131 152.467 132.256 154.678 131.471C154.528 132.886 154.052 140.077 154.408 140.987C155.498 141.942 160.438 142.247 161.864 142.152C162.499 142.112 163.279 142.072 163.794 141.662C164.144 141.097 164.579 132.341 164.759 130.936C165.584 130.911 166.389 130.931 167.215 131.011V130.426C166.424 130.326 165.614 130.331 164.819 130.331C164.859 129.076 164.969 127.725 165.174 126.49C165.889 126.14 166.544 125.725 167.215 125.3V123.445C166.549 123.785 165.964 124.25 165.284 124.58C165.459 122.885 165.449 121.06 165.799 119.399C166.219 118.884 166.765 118.434 167.22 117.939V113.169C166.56 112.053 166.444 111.668 165.389 110.818C165.414 109.703 165.354 108.583 165.319 107.473C165.974 108.213 166.549 109.018 167.22 109.753V107.823C166.695 107.183 166.214 106.453 165.409 106.153C165.259 103.572 165.334 100.977 165.324 98.3917C165.309 94.5663 165.259 90.7308 165.289 86.9053C165.309 84.56 165.419 82.1597 165.314 79.8194C165.719 79.7744 166.149 79.7344 166.475 79.4694C166.695 79.2893 166.795 79.1193 166.83 78.8393C166.785 78.6943 166.755 78.5893 166.64 78.4842C166.314 78.1842 165.809 78.2492 165.394 78.2492C165.374 76.474 165.449 74.6988 165.454 72.9236C165.454 71.4284 165.379 69.9332 165.424 68.438C166.054 68.418 166.605 68.378 167.22 68.223V66.8578C166.434 66.8478 165.539 66.7478 164.764 66.8778C164.514 66.9178 164.304 66.9778 164.154 67.1928C163.809 69.3981 164.029 71.8134 163.959 74.0487C163.759 79.2093 163.639 84.37 163.594 89.5306C163.559 93.2011 163.619 96.8716 163.614 100.547C163.614 102.097 163.629 103.647 163.614 105.198C163.594 107.063 163.424 109.048 163.839 110.878C161.724 110.733 159.668 110.523 157.538 110.493C157.798 108.528 157.803 106.498 157.843 104.517L158.018 96.9865L158.523 80.2045C158.578 78.3592 159.103 68.808 158.728 67.7979C158.718 67.7729 158.708 67.7479 158.698 67.7229C158.753 67.5879 158.803 67.4429 158.823 67.2929C158.863 67.0128 158.788 66.5378 158.568 66.3377C157.583 65.4326 143.166 66.8778 140.83 67.1078C141.03 66.7678 141.28 66.4778 141.53 66.1777C141.55 65.3426 141.3 64.5425 141.315 63.7224C142.005 63.3924 153.097 63.1723 154.728 63.1524C155.423 63.1423 156.118 63.2023 156.813 63.1873C157.148 63.1823 157.348 63.1423 157.573 62.8823C157.823 62.5973 157.778 61.7522 157.783 61.3721C157.808 59.6569 157.618 57.9267 157.603 56.2065C157.518 47.8604 157.293 39.5244 156.928 31.1833C156.818 29.0081 156.618 26.8078 156.378 24.6425C156.053 21.7022 155.198 17.9267 152.772 15.9815C151.407 15.9215 150.007 16.1015 148.642 16.1615L138.565 16.6815L126.678 17.2816C124.418 17.3766 122.112 17.3366 119.862 17.4867C117.566 17.6417 115.276 18.0467 112.981 18.2467C110.19 18.4868 107.32 18.4768 104.559 18.9468C104.229 17.8967 103.859 16.8316 103.644 15.7514C105.725 15.5964 107.77 15.2664 109.86 15.1764C110.87 15.8565 112.061 16.5615 113.306 16.6565C115.631 16.8416 118.102 16.4615 120.407 16.2065C122.992 15.9215 125.613 15.6814 128.208 15.5214C129.543 15.4414 130.884 15.4314 132.224 15.3664C133.939 15.2864 135.659 15.1414 137.37 15.0313C139.235 14.9113 141.105 14.6863 142.971 14.6063C145.576 14.4963 148.182 14.7063 150.787 14.4463C152.632 14.2612 153.982 13.9262 155.198 12.446C155.298 12.501 155.398 12.561 155.493 12.621C155.593 12.681 155.688 12.7461 155.783 12.8111C155.878 12.8761 155.973 12.9411 156.063 13.0111C156.153 13.0811 156.243 13.1511 156.333 13.2261C156.423 13.3011 156.508 13.3761 156.593 13.4511C156.678 13.5262 156.763 13.6062 156.843 13.6862C156.923 13.7662 157.003 13.8512 157.083 13.9312C157.163 14.0162 157.238 14.1012 157.313 14.1912C157.388 14.2813 157.458 14.3663 157.533 14.4563C157.603 14.5463 157.673 14.6413 157.738 14.7313C157.803 14.8263 157.868 14.9213 157.933 15.0163C157.998 15.1114 158.058 15.2114 158.113 15.3114C158.173 15.4114 158.228 15.5114 158.283 15.6114C158.338 15.7114 158.388 15.8164 158.438 15.9215C158.488 16.0265 158.533 16.1315 158.578 16.2365C158.623 16.3415 158.663 16.4515 158.703 16.5565C159.638 19.0968 159.788 21.8872 159.998 24.5575C160.208 27.2179 160.358 29.8782 160.519 32.5435C160.854 37.8892 161.129 43.2399 161.344 48.5905C161.424 50.2157 161.559 51.8359 161.629 53.4561C161.724 55.7364 161.754 61.1221 162.569 62.9973C164.024 63.4624 165.689 63.2473 167.2 63.2023V33.4386C166.339 32.9986 165.474 32.5335 164.574 32.1685C163.794 31.8484 162.999 31.6084 162.234 31.2434C162.024 30.2432 162.014 28.9431 162.059 27.9179C163.774 28.248 165.479 28.7231 167.2 28.9881V27.8479C166.775 27.6879 166.344 27.5429 165.909 27.4129C165.474 27.2829 165.039 27.1628 164.594 27.0578L164.609 27.1129ZM119.817 80.2145C119.992 80.2695 120.167 80.3245 120.347 80.3595C121.827 80.6795 125.263 79.5244 126.533 78.6893C126.558 78.4142 126.598 78.0892 126.523 77.8142C126.208 76.634 124.368 75.6439 123.783 74.4287C124.583 74.7488 126.038 76.709 126.798 77.3741C127.143 77.6791 127.568 77.8692 127.948 78.1192C128.618 78.5543 128.623 79.2643 128.773 79.9844C126.208 81.1546 123.172 81.4546 120.387 81.6697C119.817 81.7797 119.197 81.7647 118.617 81.7897C119.152 81.3246 119.462 80.8195 119.817 80.2145ZM124.908 77.2141C125.038 77.2941 125.193 77.4241 125.278 77.5541C125.408 77.7542 125.398 77.8192 125.373 78.0442L125.113 78.2442C124.893 78.2842 124.788 78.3392 124.578 78.2442C124.543 77.8942 124.773 77.5391 124.913 77.2141H124.908ZM115.646 120.79C114.776 120.845 113.951 120.95 113.101 121.13C111.726 120.209 110.29 119.319 109.015 118.259C107.95 117.374 107.015 116.344 106.06 115.344C106.925 114.139 108.25 112.949 109.23 111.783C110.035 112.253 110.735 113.034 111.42 113.659L114.311 116.254C115.891 117.669 117.546 119.004 119.122 120.419C117.992 120.74 116.811 120.725 115.646 120.785V120.79ZM118.262 122.11C117.982 122.49 117.722 122.965 117.311 123.2C117.031 123.26 116.881 123.175 116.636 123.06C116.156 122.82 115.666 122.605 115.181 122.38C115.931 122.245 116.671 122.165 117.426 122.14C117.707 122.17 117.982 122.135 118.262 122.11ZM83.551 133.986C83.4759 132.146 83.3909 130.301 83.4209 128.46C85.0962 128.135 87.1815 128.095 88.9268 127.9L103.194 126.35C103.274 126.335 103.349 126.32 103.429 126.325C103.464 126.325 108.545 129.841 108.93 130.196C108.07 130.761 107.11 131.216 106.2 131.686C102.029 133.841 99.2135 134.656 94.6878 135.766C92.7325 136.246 90.8322 136.712 88.8368 137.007C87.9667 137.112 87.0965 137.167 86.2214 137.177C85.3462 137.187 84.4761 137.152 83.606 137.072C83.701 136.046 83.591 135.006 83.551 133.981V133.986ZM85.0962 72.0634C86.3164 71.8334 87.6416 71.8034 88.8818 71.6584L89.1569 71.6334C89.1869 71.6684 89.2219 71.6984 89.2419 71.7434C89.2669 71.8034 89.5969 80.3495 89.6619 81.2346C88.9368 82.4597 88.0917 83.5299 87.1566 84.6C86.8365 84.45 86.5364 84.26 86.2364 84.0799C85.9113 83.8849 85.4563 83.6649 85.2012 83.3999C85.1762 83.3749 85.0812 83.2648 85.0712 83.2098C84.9262 82.6098 85.0712 81.3596 85.0712 80.6995C85.0662 77.8192 85.1212 74.9388 85.0962 72.0634ZM89.787 83.2999C90.037 83.6999 90.0621 89.0406 90.0321 89.9807L89.6019 88.2205C89.2719 87.0903 88.7218 86.3652 87.8867 85.5451C88.4268 84.76 89.1469 84.0099 89.787 83.3049V83.2999ZM90.1371 90.4508C90.2221 90.5858 90.7371 95.1413 90.6871 95.3163L90.4171 95.1363L89.4069 94.0412C89.772 92.751 89.982 91.6609 89.997 90.3207C90.052 90.3607 90.102 90.3907 90.1371 90.4457V90.4508ZM91.1222 97.2566C91.3622 98.3017 91.6523 99.3318 91.9873 100.352C92.3224 101.372 92.7075 102.372 93.1375 103.352C93.7126 104.653 94.5078 106.013 94.8978 107.363C95.2229 108.483 95.2429 109.763 95.3379 110.918C95.4779 112.679 95.5979 114.444 95.803 116.199C95.4929 115.844 95.2129 115.474 94.9278 115.104C91.8173 110.338 89.3719 106.073 87.6467 100.597C87.3266 99.5769 86.9665 98.5518 86.7415 97.5066C87.5816 96.8915 88.0817 96.0764 88.6318 95.2113C88.6568 95.2313 88.6868 95.2463 88.7118 95.2663L88.8468 95.3564C89.6619 95.9064 90.3821 96.6065 91.1222 97.2566ZM88.1767 105.588C89.4769 108.708 91.1822 111.728 93.0625 114.539C93.7376 115.544 95.4829 117.539 95.868 118.484C96.323 119.609 96.278 121.71 96.6331 123.075L96.6581 123.16C95.2829 123.22 93.9176 123.365 92.5574 123.595C91.2722 123.795 89.987 123.87 88.6968 123.995C86.9115 124.165 85.1412 124.37 83.3459 124.445C83.3109 120.374 83.0759 116.284 82.9359 112.218L82.5808 98.2417C83.631 98.4167 84.5911 98.2517 85.6163 98.0017C85.8813 98.2317 86.0614 99.4469 86.1814 99.8519C86.7415 101.777 87.4116 103.742 88.1817 105.593L88.1767 105.588ZM105.335 122.23C104.019 122.405 102.694 122.455 101.384 122.675C100.654 121.99 100.069 121.155 99.4086 120.399C98.5984 119.474 97.6633 118.629 97.0282 117.569C97.0732 115.609 96.6431 113.459 96.6531 111.388C96.6781 111.398 96.6981 111.408 96.7231 111.423C97.4132 111.803 99.8586 115.599 100.639 116.569C101.469 117.594 102.354 118.539 103.274 119.479C103.704 119.914 104.119 120.414 104.579 120.815C104.949 121.135 105.38 121.4 105.73 121.745C105.83 121.84 105.875 121.935 105.92 122.065C105.745 122.24 105.57 122.21 105.335 122.235V122.23ZM106.89 123.47C107.05 123.445 107.22 123.415 107.385 123.41C108.055 123.385 108.715 123.915 109.165 124.36C107.69 124.515 106.215 124.58 104.744 124.79C104.479 124.825 104.214 124.88 103.949 124.935C103.529 124.62 103.129 124.3 102.744 123.945C104.079 123.7 105.53 123.6 106.885 123.475L106.89 123.47ZM99.8686 122.75L99.8086 122.835C99.0835 122.97 98.3434 123.01 97.6082 123.07C97.5882 122.035 97.4183 121 97.2782 119.974C97.9133 120.189 99.2985 122.125 99.8686 122.75ZM105.265 114.599C105.265 114.599 105.235 114.569 105.215 114.549C102.919 112.333 101.144 109.598 99.3286 106.998C98.4334 105.708 97.3982 104.402 96.7481 102.967C96.3831 102.157 96.248 101.382 96.168 100.502C97.3732 101.112 98.5284 102.397 99.5435 103.277C100.684 104.267 101.859 105.223 102.984 106.228C104.779 107.833 106.52 109.473 108.38 111.013C107.83 111.583 107.33 112.213 106.815 112.819C106.28 113.404 105.76 113.994 105.255 114.599H105.265ZM83.3709 126.215C83.561 125.95 83.951 125.805 84.2511 125.735C84.9062 125.58 85.6563 125.6 86.3314 125.54C87.3816 125.445 88.4317 125.32 89.4819 125.225C91.5172 125.04 93.5426 124.72 95.5779 124.515C97.1632 124.355 98.7585 124.32 100.344 124.125C100.464 124.105 100.594 124.08 100.714 124.075C101.269 124.055 101.719 124.61 102.084 124.96C100.494 125.27 98.8035 125.345 97.1882 125.525C93.1225 125.97 89.0418 126.315 84.9812 126.855C84.6961 126.895 84.4011 126.95 84.111 126.96C83.781 126.97 83.561 126.875 83.3209 126.66C83.2609 126.465 83.2359 126.405 83.3659 126.22L83.3709 126.215ZM105.38 126.215C106.97 126.045 108.555 125.92 110.135 125.685C110.305 125.67 110.405 125.685 110.55 125.765C111.531 126.315 112.371 127.045 113.386 127.575C112.331 128.21 111.231 128.791 110.16 129.401L109.245 128.926C107.97 128.035 106.555 127.23 105.375 126.215H105.38ZM114.921 115.239C113.366 113.729 111.546 112.448 110.07 110.883C111.07 109.643 112.371 108.598 113.436 107.398L126.268 92.9761C126.323 93.0111 126.378 93.0861 126.418 93.1311C126.593 94.3162 126.253 96.2265 126.128 97.4666C125.788 100.827 125.323 104.232 124.503 107.513C124.093 109.153 123.527 110.793 122.992 112.393C122.572 113.639 122.172 114.939 121.637 116.139C121.107 117.324 120.477 118.469 119.842 119.599C118.112 118.269 116.536 116.709 114.926 115.239H114.921ZM126.423 91.5409C126.288 91.5309 126.138 91.5109 126.003 91.5209C125.798 91.5359 125.648 91.6009 125.503 91.7409C124.498 92.721 123.668 93.9512 122.702 94.9863C120.912 96.9065 119.067 98.7968 117.326 100.762C114.561 103.877 111.921 107.108 109.155 110.223C106.9 108.213 104.764 106.098 102.444 104.152C100.689 102.657 98.8435 101.232 97.1332 99.6869C96.7731 99.3619 96.283 98.9418 96.118 98.4818C95.7429 97.4266 95.763 94.6013 95.658 93.3311C95.573 92.266 95.4029 91.2108 95.3429 90.1457C98.0734 89.4906 100.889 89.0856 103.654 88.6105C106.325 88.1505 108.975 87.5754 111.646 87.1253C116.391 86.3202 121.192 85.6201 125.853 84.395L125.948 84.41C126.013 84.5 126.048 84.575 126.073 84.685C126.343 85.9752 126.273 87.4504 126.343 88.7705C126.383 89.5156 126.518 90.2657 126.528 91.0108C126.528 91.2308 126.533 91.3509 126.418 91.5409H126.423ZM105.335 85.6552C106.36 85.8102 107.48 85.4201 108.305 84.815C108.63 84.575 108.895 84.265 109.225 84.0249C109.525 84.2 109.775 84.35 110.125 84.405C111.921 84.69 113.626 84.495 115.136 83.3999C117.346 83.3449 119.542 83.0748 121.747 82.9448C122.557 82.8998 124.048 83.0198 124.743 82.8298C125.063 82.7448 125.473 82.3097 125.723 82.0997L125.848 83.1798C123.838 83.3499 121.877 83.8599 119.912 84.315C111.726 85.8802 103.524 87.3554 95.3079 88.7405C95.1529 86.8803 94.9879 84.9951 94.6578 83.1548C96.6781 83.0498 98.7135 82.5748 100.714 82.2547C101.379 82.3797 103.009 85.3001 105.335 85.6501V85.6552ZM98.3784 79.5244C98.8335 79.8844 99.1285 80.5595 99.5486 80.9996C99.5736 81.0246 99.5986 81.0496 99.6236 81.0796C98.7034 81.2546 93.9377 81.7497 93.5926 82.0497L93.6376 82.1597L93.5126 82.1447C93.3376 83.0048 93.5776 84.0199 93.6326 84.9001C93.8827 88.8455 94.3177 92.776 94.5728 96.7165C94.5878 96.8665 94.5778 96.9766 94.5628 97.1266L94.4478 97.1066C93.9627 96.4515 93.6126 95.4114 93.4426 94.6213C93.1375 93.1661 93.1075 91.5909 93.0025 90.1057C92.7625 86.8653 92.5574 83.6449 92.5574 80.3895C94.3227 79.8944 96.288 79.7794 98.1033 79.5394L98.3734 79.5294L98.3784 79.5244ZM96.123 74.8238C96.6231 75.2038 97.1632 77.4141 97.4282 78.1142C96.4881 78.3492 95.4779 78.4443 94.5178 78.5893L93.1825 78.7893C94.1377 77.4491 95.2129 76.194 96.123 74.8238ZM94.7128 71.2584L94.7878 71.2683C95.2078 71.7034 95.4079 72.3885 95.6179 72.9486C95.1178 74.1437 94.0927 75.2989 93.3276 76.354L93.0075 76.719L92.9225 76.659C93.1175 74.9338 92.7825 73.1836 92.9625 71.4334C93.5326 71.3384 94.1327 71.3134 94.7078 71.2633L94.7128 71.2584ZM92.4574 66.1927C92.9575 66.5328 93.8026 68.9031 94.0376 69.5981C92.7324 69.6682 91.4423 69.8632 90.1421 69.9782C88.6768 70.1082 87.2216 70.1782 85.7613 70.3482C85.3113 70.4182 84.8612 70.4533 84.4061 70.4933C84.3811 69.3381 84.3261 68.178 84.2461 67.0228C86.9815 66.7978 89.717 66.4327 92.4574 66.1927ZM87.0115 86.2802C87.0866 86.3552 87.1565 86.4352 87.2265 86.5152C87.2966 86.5953 87.3616 86.6753 87.4266 86.7603C87.4916 86.8453 87.5566 86.9303 87.6166 87.0153C87.6766 87.1003 87.7366 87.1903 87.7916 87.2804C87.8466 87.3704 87.9017 87.4604 87.9567 87.5504C88.0067 87.6404 88.0567 87.7354 88.1067 87.8304C88.1567 87.9254 88.2017 88.0204 88.2417 88.1155C88.2867 88.2105 88.3267 88.3105 88.3617 88.4105C88.4017 88.5105 88.4368 88.6105 88.4668 88.7105C88.4968 88.8105 88.5318 88.9105 88.5568 89.0156C88.5868 89.1156 88.6118 89.2206 88.6318 89.3256C88.6568 89.4306 88.6768 89.5306 88.6918 89.6356C88.7068 89.7407 88.7218 89.8457 88.7368 89.9507C88.7468 90.0557 88.7568 90.1607 88.7668 90.2657C88.7718 90.3707 88.7768 90.4757 88.7818 90.5808C88.7818 90.6858 88.7818 90.7908 88.7818 90.9008C88.7818 91.0158 88.7718 91.1308 88.7618 91.2458C88.7518 91.3609 88.7418 91.4759 88.7268 91.5859C88.7118 91.7009 88.6968 91.8109 88.6718 91.9259C88.6518 92.0409 88.6268 92.151 88.6018 92.261C88.5768 92.371 88.5468 92.481 88.5168 92.591C88.4868 92.701 88.4517 92.811 88.4167 92.9211C88.3817 93.0311 88.3417 93.1361 88.2967 93.2411C88.2567 93.3461 88.2117 93.4511 88.1617 93.5561C88.1167 93.6611 88.0667 93.7612 88.0117 93.8662C87.9617 93.9662 87.9066 94.0662 87.8466 94.1662C87.7916 94.2662 87.7316 94.3612 87.6666 94.4612C87.6066 94.5563 87.5416 94.6513 87.4766 94.7463C87.4116 94.8413 87.3416 94.9313 87.2716 95.0213C87.2016 95.1113 87.1265 95.2013 87.0515 95.2863C86.9765 95.3714 86.8965 95.4564 86.8215 95.5414C86.7415 95.6214 86.6615 95.7064 86.5765 95.7814C85.6763 96.6165 84.6411 96.9916 83.4209 96.9466C83.4059 96.9466 83.3909 96.9366 83.3759 96.9366C81.9807 96.8515 80.5455 96.6315 79.4153 95.7464C77.9 94.5613 77.1299 92.491 76.9099 90.6408C76.7148 89.0106 76.9749 87.1553 78.0301 85.8452C79.2103 84.38 80.5005 84.285 82.2407 84.0949C82.3708 84.0649 82.5208 84.07 82.6558 84.075C84.2161 84.085 85.9564 85.1851 87.0115 86.2902V86.2802ZM75.9347 59.3119L77.565 67.9279C77.76 68.9781 77.855 70.0732 78.095 71.1083C78.1451 71.3184 78.2251 71.5134 78.3601 71.6834C78.9502 72.4435 79.9904 72.4235 80.8555 72.5485C80.9755 72.7235 80.9655 72.7935 80.9755 72.9986C81.0155 73.8687 80.8605 74.8438 80.8305 75.7239C80.7455 78.2242 80.6655 80.7095 80.5205 83.2098C79.6503 83.2699 79.0953 83.3949 78.3301 83.8299C77.645 83.1448 76.8399 82.5648 76.1348 81.8947L68.4335 74.5688C67.3133 73.5886 66.2382 72.5435 65.133 71.5434L55.0263 62.4372C53.2611 60.8771 51.5058 59.0518 49.5054 57.7967C49.7155 57.3366 50.0005 56.9066 50.2905 56.4915C50.6556 55.9614 51.0357 55.4364 51.4257 54.9263C51.8158 54.4163 52.2209 53.9112 52.6409 53.4211C53.061 52.9311 53.4911 52.451 53.9361 51.9809C54.3812 51.5109 54.8363 51.0558 55.3014 50.6108C55.7714 50.1657 56.2465 49.7357 56.7366 49.3156C57.2267 48.8956 57.7268 48.4905 58.2418 48.1005C58.7519 47.7104 59.277 47.3304 59.8071 46.9653C60.3372 46.6003 60.8823 46.2502 61.4324 45.9152C62.3225 45.3601 63.2226 44.775 64.1728 44.325C66.4232 43.2599 69.1086 42.5048 71.559 42.0597L71.844 42.0147C71.899 42.0347 71.9591 42.0347 72.0041 42.0697C72.1091 42.1597 72.5492 44.635 72.6142 44.9001C73.7994 49.6807 75.0046 54.4663 75.9497 59.3069L75.9347 59.3119ZM73.2693 41.8047C73.5043 41.7897 73.6993 41.7697 73.9244 41.8447C74.1244 42.0847 76.9949 55.5414 76.9649 56.6515C76.9249 56.6115 76.8699 56.5765 76.8448 56.5265C76.7148 56.2565 76.6798 55.7814 76.6048 55.4814L75.5897 51.1708C74.8396 48.0555 73.8394 44.9551 73.2643 41.8097L73.2693 41.8047ZM52.1259 61.2621L56.6566 65.3176C60.7022 68.9481 64.8029 72.5435 68.7835 76.244C70.5038 77.8392 72.1741 79.4844 73.8744 81.0996C75.0946 82.2597 76.4048 83.3649 77.515 84.64C75.6197 86.9203 75.4197 88.3755 75.6547 91.3059C72.2742 91.7909 68.9636 92.636 65.593 93.1661C61.4023 93.9362 57.1967 94.6813 53.016 95.5114C49.3604 96.2365 45.7048 97.0416 42.0192 97.6016C41.9942 97.4816 41.9742 97.3666 41.9492 97.2466C41.7242 95.9964 41.6592 94.7213 41.5792 93.4511C41.4841 91.9609 41.3691 90.4207 41.4041 88.9256C41.4191 88.1855 41.5441 87.4454 41.5891 86.7053C41.8191 82.8448 42.2893 79.1193 42.9544 75.3089C43.2644 73.5486 43.5194 71.7784 43.9795 70.0482C44.2796 68.9181 44.6997 67.8329 45.0847 66.7328C46.0999 63.8524 47.165 61.0871 48.9203 58.5668C49.1153 58.6268 49.2654 58.7218 49.4204 58.8518C50.3555 59.6069 51.2257 60.462 52.1208 61.2671L52.1259 61.2621ZM54.6363 96.4815L66.4382 94.3612C69.5387 93.7912 72.6442 93.0061 75.7697 92.621C75.7797 92.621 75.7947 92.611 75.8047 92.616C76.0447 92.656 76.2098 93.3811 76.3098 93.6161C76.7849 94.7513 77.825 95.8464 78.6601 96.7415C77.665 97.7066 76.4698 99.3419 75.5247 100.457L69.2386 107.778C67.8784 109.363 66.4632 110.883 65.073 112.433L54.7113 123.955C53.116 122.235 51.6407 120.424 50.2805 118.519C46.7449 113.434 42.2392 104.928 42.1542 98.6968C46.3349 98.0867 50.4906 97.2616 54.6413 96.4815H54.6363ZM74.8746 103.352C76.2348 101.737 78.6802 99.2668 79.6903 97.5816C80.2154 97.6466 80.7105 97.8267 81.2156 97.9867C81.4356 99.6319 81.3856 101.372 81.4306 103.032L81.6507 113.549L81.9157 121.595C81.9407 122.39 82.1307 123.595 82.0057 124.345C81.8957 125.01 79.5453 124.615 78.9652 125.075C78.8002 125.205 78.7202 125.415 78.7252 125.62C78.7302 126.325 79.5853 128.39 80.0954 128.861C80.7355 128.911 81.4656 128.635 82.1207 128.57C82.4658 131.236 82.1057 134.251 82.5108 136.962C79.9054 136.862 77.475 136.051 75.0196 135.251C74.1194 134.961 73.2043 134.711 72.3091 134.401C70.5438 133.786 68.8035 133.031 67.0933 132.281C65.578 131.651 64.0028 130.961 62.5676 130.156C60.4922 128.991 57.3667 126.61 55.6914 124.875C62.2475 117.844 68.6435 110.668 74.8796 103.352H74.8746ZM82.1057 127.23C81.6256 127.31 81.1106 127.415 80.6305 127.285C80.4105 126.86 80.2904 126.435 80.1654 125.98L81.9507 125.965C82.1408 126.2 82.0857 126.905 82.1057 127.23ZM83.726 72.1885C83.761 72.2335 83.801 72.2735 83.826 72.3185C83.896 72.4635 83.921 82.0897 83.931 83.0298L82.7208 82.8098C82.5058 82.8048 82.1808 82.8398 82.0107 82.7248C82.2658 79.2693 82.0607 75.7789 82.2907 72.3285C82.7158 72.2885 83.1259 72.2285 83.5459 72.1385L83.726 72.1835V72.1885ZM78.6402 41.8047C79.1153 42.3047 79.9254 47.8254 80.1204 48.9156C80.9005 53.2861 81.8507 57.6417 82.2857 62.0722C82.5708 64.9576 82.5108 67.8679 82.6858 70.7583C81.7157 70.7983 80.7705 70.9983 79.7953 71.0283C79.7353 69.3881 79.6353 67.7529 79.5053 66.1127C79.3753 64.4775 79.2103 62.8473 79.0102 61.2171C78.8102 59.5869 78.5752 57.9667 78.3101 56.3465C78.0401 54.7263 77.74 53.1161 77.405 51.5109C77.0099 49.6056 76.5798 47.6754 76.1298 45.7802C75.8147 44.455 75.4596 43.1448 75.2446 41.7947C76.3098 41.7947 77.375 41.8147 78.4351 41.7497C78.5602 41.7497 78.5652 41.7247 78.6402 41.8047ZM69.6387 25.4426C70.4939 26.0127 72.5592 30.2482 73.1443 31.3984L73.0593 31.4834C72.5192 31.6284 71.9641 31.6934 71.409 31.7684C71.2689 31.1133 71.0089 30.4633 70.8189 29.8182C70.3888 28.373 69.9688 26.9128 69.6387 25.4426ZM118.557 135.656C112.791 140.022 103.199 144.367 96.128 145.973C94.0927 146.438 91.9623 146.673 89.887 146.843C85.9864 147.163 81.4256 146.908 77.6 146.073C76.4598 145.823 75.3346 145.463 74.2095 145.143C72.2742 144.597 70.3538 144.052 68.4785 143.322C63.7177 141.472 59.407 138.557 55.5364 135.256C53.8511 133.821 52.3009 132.236 50.7856 130.626C43.4094 122.78 39.3188 114.579 36.5683 104.207C35.5082 100.212 34.653 96.1164 34.328 91.9909C33.5778 82.5798 35.4932 70.2382 38.7737 61.3621C39.1538 60.342 39.5638 59.3369 40.0039 58.3367C40.444 57.3416 40.914 56.3615 41.4141 55.3914C41.9142 54.4263 42.4393 53.4711 42.9944 52.536C43.5494 51.6009 44.1345 50.6808 44.7446 49.7807C45.5048 48.6655 46.2649 47.4904 47.1451 46.4703C54.0262 38.5043 63.1676 33.2136 73.7843 32.4535H73.8844C74.3895 32.9036 74.7945 33.7187 75.1746 34.2837C76.1447 35.6889 77.0999 37.1091 78.04 38.5343C77.2049 38.5843 76.3548 38.5343 75.5197 38.5543C73.8944 38.5893 72.1841 38.7293 70.5839 38.9943C61.4174 40.4945 53.7311 45.7952 47.9552 52.9111C47.075 53.9912 46.2899 55.1613 45.4797 56.3015C43.0944 59.6519 41.5291 63.6174 40.3189 67.5229C39.7388 69.3981 39.1288 71.2634 38.7037 73.1786C37.0534 80.5795 36.7133 89.9557 37.9735 97.4166C38.6336 101.332 39.7938 105.053 41.3041 108.718C43.8495 114.909 47.5501 121.09 52.2308 125.905C53.5861 127.3 55.1063 128.6 56.6116 129.836C57.5267 130.586 58.4419 131.366 59.412 132.046C68.9036 138.712 80.9855 142.002 92.4974 139.927C94.8328 139.507 97.1782 138.742 99.4386 138.017C106.155 135.861 113.121 132.716 118.087 127.56C119.222 126.38 120.237 125.005 121.162 123.655C126.308 116.149 129.073 107.858 130.184 98.8668C130.304 97.8767 130.529 96.8315 130.589 95.8464C130.614 95.4064 130.559 94.9613 130.584 94.5212C130.724 91.5209 130.644 88.3605 130.254 85.3701C130.054 83.8349 129.739 82.3097 129.453 80.7895C129.463 80.7695 129.478 80.7545 129.488 80.7345C129.508 80.7045 129.523 80.6695 129.543 80.6395C129.808 80.1995 129.663 79.7444 129.858 79.3294C129.979 79.0693 131.319 79.1193 131.649 79.0193C131.959 78.9243 132.219 78.7493 132.354 78.4493C132.504 78.1142 132.499 77.7192 132.469 77.3591C132.409 76.579 132.164 75.7789 132.039 75.0038C131.664 72.6685 131.344 70.2932 130.759 68.0029C130.384 66.5328 129.929 65.0876 129.393 63.6624C128.868 62.3022 128.253 60.667 127.148 59.6669C126.138 58.7518 124.538 58.2967 123.307 57.7067C122.532 57.3366 121.772 56.8766 121.052 56.4065C117.802 54.2712 114.961 51.6059 111.871 49.2556C110.86 48.4905 109.84 47.7004 108.745 47.0603C107.73 46.4653 106.535 46.0552 105.46 45.5751C105.22 45.1301 105.054 44.64 104.854 44.18C104.264 42.8198 103.714 41.4346 103.104 40.0845C102.439 38.5993 101.569 37.1791 101.014 35.6489C103.314 36.049 105.535 37.0791 107.66 38.0192C110.95 39.4394 113.936 41.8147 116.681 44.08C118.677 45.7252 120.492 47.6104 122.257 49.4906C123.387 50.6958 124.548 51.8659 125.583 53.1561C133.059 62.5073 136.36 73.4786 137.46 85.2401C137.7 87.8054 137.535 90.5308 137.39 93.1011C136.885 102.057 135.144 111.053 131.294 119.214C130.754 120.359 130.099 121.45 129.493 122.565C128.223 124.9 126.893 127.265 125.178 129.311C123.242 131.616 120.967 133.841 118.567 135.661L118.557 135.656ZM137.965 72.3835C137.62 72.3835 136.975 72.4385 136.695 72.2485C136.52 71.2934 135.959 69.8932 135.874 69.0831C136.14 68.9031 137.325 68.9681 137.71 68.9381C137.85 68.9481 137.99 68.9581 138.13 68.9731C138.205 70.0782 138.005 71.2634 137.965 72.3785V72.3835ZM138.575 97.5066C138.72 96.1414 138.795 94.7613 138.995 93.4011C139.315 93.7612 139.79 95.0863 140.055 95.5964C143.521 102.227 146.291 109.248 149.117 116.174C149.887 118.059 150.607 119.969 151.417 121.835C150.632 122.315 149.702 122.615 148.847 122.95C146.391 123.905 143.936 124.865 141.32 125.3C137.33 126.07 133.474 125.77 129.458 125.58C133.549 120.029 136.67 110.298 137.76 103.497C138.08 101.507 138.355 99.5119 138.575 97.5066ZM154.658 129.571C153.327 130.286 151.817 130.821 150.392 131.306C144.791 133.211 138.72 134.391 132.794 134.426C129.818 134.446 126.748 134.121 123.808 133.661C123.642 133.626 123.583 133.646 123.462 133.521C123.838 133.001 124.413 132.631 124.858 132.171C125.593 131.401 126.258 130.546 126.933 129.721C127.823 129.966 128.773 130.031 129.688 130.121C134.989 130.641 140.32 129.996 145.506 128.896C146.686 128.645 147.891 128.42 149.052 128.095C150.982 127.55 152.867 126.775 154.708 125.98L154.828 126.035C155.003 126.92 154.733 128.615 154.658 129.571ZM153.287 121.02L152.322 121.52C151.437 117.869 149.762 114.339 148.312 110.878C147.446 108.808 146.686 106.698 145.761 104.648C144.386 101.622 142.926 98.5868 141.39 95.6414C140.95 94.7963 140.58 93.8762 140.07 93.0761C139.905 92.816 139.75 92.636 139.455 92.521C139.21 92.581 139.17 92.681 139.01 92.866C138.75 92.156 139.105 90.7908 139.12 90.0157C139.175 87.7254 139.095 85.4751 138.82 83.1998C139.56 83.0298 140.555 82.7598 141.13 82.2397C141.985 82.7048 146.811 88.0704 147.791 89.0906C150.077 91.4709 152.407 93.8062 154.673 96.2115C155.313 96.8865 156.043 97.5016 156.638 98.2117L156.628 98.2967C156.453 99.5169 156.458 100.797 156.413 102.032C156.323 104.518 156.288 107.008 156.168 109.493C156.123 110.478 155.633 111.398 155.533 112.383C155.273 114.924 155.363 117.484 155.113 120.029C154.513 120.369 153.902 120.69 153.297 121.015L153.287 121.02ZM142.851 79.9144L148.301 79.8594C150.652 79.8544 153.007 79.8894 155.353 79.7794C155.648 79.7544 155.938 79.7444 156.233 79.7544C156.528 79.7644 156.818 79.7944 157.108 79.8394C157.138 81.9247 156.993 84.0249 156.933 86.1152C156.863 89.5606 156.748 93.0061 156.593 96.4515C155.333 95.0013 153.952 93.6311 152.617 92.251C151.827 91.4359 151.077 90.5858 150.277 89.7807L141.94 81.5296C142.336 81.0046 142.606 80.5145 142.851 79.9094V79.9144ZM142.721 76.634C144.586 76.769 146.466 76.664 148.332 76.609C150.702 76.539 153.067 76.489 155.438 76.389C156.033 76.414 156.658 76.349 157.258 76.349C157.258 76.884 157.208 77.4241 157.178 77.9642C155.298 77.9092 153.407 77.9992 151.527 78.0342C149.262 78.0792 146.996 78.0742 144.731 78.1642C144.151 78.1692 143.576 78.1742 143.001 78.2142C142.891 77.6942 142.806 77.1641 142.721 76.639V76.634ZM164.339 111.793L162.794 132.076C162.574 134.921 162.444 137.802 162.129 140.637L162.049 140.772C160.979 141.082 156.818 140.687 155.508 140.547C155.518 138.742 155.728 136.892 155.853 135.086C156.033 132.396 156.193 129.711 156.323 127.015L156.803 117.609C156.908 115.509 156.898 113.329 157.328 111.258C159.523 111.423 162.239 111.218 164.334 111.788L164.339 111.793ZM147.746 68.063C150.052 67.8179 152.372 67.7779 154.683 67.6129C155.468 67.5479 156.473 67.4229 157.243 67.5429C157.338 67.5579 157.458 67.5579 157.508 67.6529C157.783 68.158 157.418 73.8787 157.248 74.6738C153.247 75.0138 149.187 74.8388 145.176 75.0088C144.506 75.0188 142.666 75.1788 142.12 74.9488C142.13 74.7438 142.19 74.5938 142.301 74.4237C142.661 73.8837 143.181 73.3836 143.611 72.8885C144.371 72.0184 145.091 71.1183 145.851 70.2532C146.461 69.5581 147.141 68.9031 147.681 68.153C147.701 68.123 147.721 68.093 147.741 68.068L147.746 68.063ZM145.716 68.183L145.976 68.203L146.021 68.333C145.766 68.753 145.376 69.0481 145.046 69.4081C144.251 70.2732 143.441 71.1083 142.636 71.9634C142.065 72.5735 141.555 73.2286 140.935 73.7937C140.755 73.5736 140.55 73.3836 140.345 73.1886C139.99 72.9936 139.605 72.8586 139.23 72.7085C139.285 71.3734 139.275 70.0282 139.28 68.693C141.39 68.393 143.586 68.383 145.711 68.188L145.716 68.183ZM155.683 35.944C151.697 35.994 147.691 36.069 143.716 36.319C142.931 36.284 142.14 36.319 141.355 36.329C145.166 34.6788 149.572 33.7937 153.702 33.4586C154.302 33.3686 154.923 33.3986 155.528 33.4386C155.588 34.2737 155.643 35.1138 155.688 35.9489L155.683 35.944ZM139.495 34.1437C138.07 34.7288 135.524 36.234 134.239 36.524C133.029 36.7941 131.344 36.639 130.089 36.644C129.003 36.654 127.913 36.7241 126.828 36.709C126.663 36.709 126.498 36.709 126.333 36.714L126.283 36.644L126.318 36.534C126.693 36.279 127.183 36.119 127.588 35.8939C128.203 35.5539 128.793 35.1638 129.403 34.8088C131.704 33.4786 134.014 32.2335 136.475 31.2184C142.181 28.8581 148.612 27.6879 154.758 27.4929C154.833 27.4729 154.933 27.4879 155.013 27.4879C155.393 28.128 155.408 30.0582 155.483 30.8383C149.587 31.0883 144.996 31.8884 139.5 34.1387L139.495 34.1437ZM128.073 18.4368C129.884 18.3568 131.694 18.2467 133.504 18.1867C135.394 18.1267 137.29 18.1267 139.18 18.0217C140.875 17.9317 142.561 17.6767 144.256 17.6117C146.476 17.5267 148.682 17.7517 150.892 17.4566C151.312 17.4016 151.767 17.4316 152.192 17.4316C154.322 19.7119 154.663 23.2624 155.038 26.2277C153.367 26.4328 151.657 26.3628 149.982 26.5578C149.257 26.6428 148.532 26.7378 147.806 26.8528C147.081 26.9678 146.361 27.0928 145.646 27.2379C144.931 27.3829 144.216 27.5379 143.506 27.7129C142.796 27.8879 142.086 28.073 141.385 28.278C140.68 28.483 139.985 28.6981 139.29 28.9281C138.595 29.1581 137.905 29.4081 137.225 29.6682C136.54 29.9282 135.864 30.2032 135.189 30.4933C134.519 30.7833 133.849 31.0833 133.194 31.4034C131.289 32.3085 129.448 33.3336 127.673 34.4688C126.888 34.9738 124.993 36.434 124.263 36.709C123.808 36.8841 123.292 36.789 122.822 36.744L122.617 36.724C122.462 36.149 122.277 35.5839 122.107 35.0138C120.562 29.6332 118.177 24.4175 116.116 19.2119C119.997 18.4218 124.133 18.6068 128.078 18.4318L128.073 18.4368ZM114.301 19.2869C114.491 19.2719 114.741 19.2219 114.916 19.3019C115.071 19.3769 119.117 29.8632 119.442 30.7783C120.242 33.0136 120.912 35.2989 121.667 37.5491C122.467 39.9445 123.347 42.3097 124.298 44.645C124.753 45.7902 125.228 46.9503 125.933 47.9654C127.713 50.5358 130.634 52.446 133.224 54.1412C135.689 55.7514 137.465 56.3365 138.76 59.2769C139.21 60.307 140.415 64.7775 140.05 65.7277C138.85 66.2577 135.019 57.8717 133.214 57.1866C133.014 57.2066 133.014 57.1666 132.869 57.3316C132.789 57.8217 133.159 58.4968 133.394 58.9218C133.754 59.5819 134.254 60.167 134.659 60.7921C135.509 62.1022 136.335 63.4174 137.21 64.7125C137.71 65.4726 138.78 67.0778 139.8 67.0578C140.125 67.0528 140.42 66.9178 140.72 67.0628C140.12 67.5079 136.205 67.6329 135.199 67.7279C134.679 66.6678 134.309 65.5176 133.839 64.4325C133.029 62.5723 132.059 60.712 131.069 58.9418C127.108 51.8859 119.262 44.05 112.536 39.6444C111.561 39.0043 110.495 38.5343 109.48 37.9642C108.955 36.059 108.72 34.0437 108.25 32.1135C107.765 30.1332 107.135 28.208 106.585 26.2477C105.985 24.1025 105.44 21.9522 104.804 19.8169C107.98 19.7569 111.145 19.5819 114.306 19.2869H114.301ZM165.999 35.5289C166.164 35.6339 166.204 35.6339 166.254 35.8289C164.959 35.9539 163.644 35.9039 162.344 35.8639C162.269 35.2489 162.264 34.6138 162.234 33.9937C163.484 34.3037 164.899 34.8438 165.999 35.5289Z" fill="#404FDB"></path><path d="M107.323 75.808C107.473 75.923 107.748 75.873 107.923 75.848C108.003 75.1479 106.958 71.9825 106.598 71.3524C106.378 71.2524 106.188 71.2774 105.958 71.2924C106.078 72.3025 106.533 75.2079 107.323 75.808Z" fill="#404FDB"></path><path d="M101.579 73.1623C101.754 73.1973 101.924 73.2273 102.099 73.2473C102.239 72.5173 100.459 67.8617 99.979 67.0716C99.924 66.9816 99.859 66.9116 99.789 66.8366L99.449 66.7766C99.419 66.8716 99.3639 66.9616 99.3539 67.0566C99.3089 67.5066 100.974 72.1472 101.289 72.8023C101.364 72.9623 101.429 73.0623 101.584 73.1623H101.579Z" fill="#404FDB"></path><path d="M123.754 70.083C125.024 71.5231 126.234 73.0183 127.515 74.4485C128.135 75.1436 129.095 76.2737 130.1 76.2987C130.13 76.2987 130.16 76.2987 130.185 76.2937C130.265 75.9337 130.275 75.6587 130.055 75.3436C129.535 74.6085 128.735 73.9635 128.13 73.2784C127.13 72.1532 121.374 65.2324 120.774 65.1474C120.589 65.1223 120.418 65.1373 120.233 65.1474C120.218 65.4424 120.173 65.7574 120.323 66.0275C120.924 67.1276 122.859 69.0578 123.754 70.073V70.083Z" fill="#404FDB"></path></g></svg> 