<?xml version="1.0" encoding="UTF-8" standalone="no"?>
<svg
   xmlns:dc="http://purl.org/dc/elements/1.1/"
   xmlns:cc="http://creativecommons.org/ns#"
   xmlns:rdf="http://www.w3.org/1999/02/22-rdf-syntax-ns#"
   xmlns:svg="http://www.w3.org/2000/svg"
   xmlns="http://www.w3.org/2000/svg"
   viewBox="0 0 2560 1440"
   height="1440"
   width="2560"
   xml:space="preserve"
   id="svg2"
   version="1.1"><metadata
     id="metadata8"><rdf:RDF><cc:Work
         rdf:about=""><dc:format>image/svg+xml</dc:format><dc:type
           rdf:resource="http://purl.org/dc/dcmitype/StillImage" /></cc:Work></rdf:RDF></metadata><defs
     id="defs6"><clipPath
       id="clipPath22"
       clipPathUnits="userSpaceOnUse"><path
         id="path20"
         d="M 0,1080 H 1920 V 0 H 0 Z" /></clipPath></defs><g
     transform="matrix(1.3333333,0,0,-1.3333333,0,1440)"
     id="g10"><g
       transform="translate(536.85,562.94)"
       id="g12"><path
         id="path14"
         style="fill:#3c50e2;fill-opacity:1;fill-rule:nonzero;stroke:none"
         d="M 0,0 H -21.98 V 109.91 H -65.94 V 0 H -87.92 V 131.89 H 0.01 L 0.01,0 Z" /></g><g
       id="g16"><g
         clip-path="url(#clipPath22)"
         id="g18"><g
           transform="translate(613.78,656.37)"
           id="g24"><path
             id="path26"
             style="fill:#3c50e2;fill-opacity:1;fill-rule:nonzero;stroke:none"
             d="m 0,0 c 0,4.58 -1.6,8.47 -4.81,11.68 -3.21,3.21 -7.1,4.81 -11.68,4.81 h -27.48 v -43.96 h 27.48 c 4.58,0 8.47,1.6 11.68,4.81 3.21,3.21 4.81,7.1 4.81,11.68 L 0,0.01 Z m -16.48,38.46 c 10.62,0 19.69,-3.76 27.2,-11.27 7.51,-7.51 11.27,-16.58 11.27,-27.2 V -11 c 0,-10.62 -3.76,-19.69 -11.27,-27.2 -7.51,-7.51 -16.58,-11.27 -27.2,-11.27 H -43.96 V -93.43 H -65.94 V 38.46 Z" /></g><g
           transform="translate(712.7,584.92)"
           id="g28"><path
             id="path30"
             style="fill:#3c50e2;fill-opacity:1;fill-rule:nonzero;stroke:none"
             d="m 0,0 c 12.15,0 22.52,4.29 31.1,12.87 8.58,8.58 12.87,18.94 12.87,31.1 0,12.16 -4.29,22.51 -12.87,31.09 -8.58,8.58 -18.94,12.87 -31.1,12.87 -12.16,0 -22.52,-4.29 -31.1,-12.87 -8.58,-8.58 -12.87,-18.94 -12.87,-31.09 0,-12.15 4.29,-22.52 12.87,-31.1 C -22.52,4.29 -12.16,0 0,0 m 0,-21.98 c -18.2,0 -33.74,6.44 -46.62,19.33 -12.88,12.88 -19.33,28.42 -19.33,46.62 0,18.2 6.44,33.73 19.33,46.62 12.88,12.88 28.42,19.33 46.62,19.33 18.2,0 33.74,-6.44 46.62,-19.33 C 59.5,77.7 65.95,62.16 65.95,43.97 65.95,25.78 59.51,10.23 46.62,-2.65 33.74,-15.54 18.2,-21.98 0,-21.98" /></g><g
           transform="translate(498.38,429.13)"
           id="g32"><path
             id="path34"
             style="fill:#3c50e2;fill-opacity:1;fill-rule:nonzero;stroke:none"
             d="M 0,0 V 87.93 H -27.48 V 16.49 C -27.48,10.51 -28.67,5.01 -31.05,0 Z M 21.98,0 H 38.47 V -43.96 H 16.49 v 21.98 H -49.46 V -43.96 H -71.44 V 0 h 5.59 c 4.52,0 8.4,1.62 11.63,4.85 3.17,3.17 4.76,7.05 4.76,11.63 V 109.9 H 21.98 V -0.01 Z" /></g><g
           transform="translate(597.3,429.13)"
           id="g36"><path
             id="path38"
             style="fill:#3c50e2;fill-opacity:1;fill-rule:nonzero;stroke:none"
             d="m 0,0 c 4.58,0 8.47,1.6 11.68,4.81 3.21,3.21 4.81,7.1 4.81,11.68 0,4.58 -1.6,8.47 -4.81,11.68 C 8.47,31.38 4.58,32.98 0,32.98 H -27.48 V 0.01 L 0,0.01 Z m -27.48,54.95 h 5.5 c 4.58,0 8.47,1.6 11.68,4.81 3.21,3.21 4.81,7.1 4.81,11.68 0,4.58 -1.6,8.47 -4.81,11.68 -3.21,3.21 -7.1,4.81 -11.68,4.81 h -5.5 V 54.96 Z M 12,53.12 C 17.62,51.35 22.69,48.2 27.2,43.69 34.71,36.18 38.47,27.11 38.47,16.49 38.47,5.87 34.71,-3.2 27.2,-10.71 19.69,-18.22 10.62,-21.98 0,-21.98 h -49.46 v 131.89 h 27.48 c 10.62,0 19.69,-3.76 27.2,-11.27 7.51,-7.51 11.27,-16.58 11.27,-27.2 0,-6.72 -1.5,-12.82 -4.49,-18.32 z" /></g><g
           transform="translate(778.65,539.04)"
           id="g40"><path
             id="path42"
             style="fill:#3c50e2;fill-opacity:1;fill-rule:nonzero;stroke:none"
             d="m 0,0 v -131.89 h -21.98 v 104.05 l -81.97,-104.05 h -27.94 V 0 h 21.98 V -104.05 L -27.94,0 Z" /></g><g
           transform="translate(921.53,418.14)"
           id="g44"><path
             id="path46"
             style="fill:#3c50e2;fill-opacity:1;fill-rule:nonzero;stroke:none"
             d="M 0,0 V -10.99 H -21.98 V 0 c 0,12.15 -4.27,22.53 -12.82,31.14 -5.92,5.86 -12.64,9.71 -20.15,11.54 V -10.99 H -76.93 V 42.68 C -84.44,40.85 -91.13,37 -96.99,31.14 -105.6,22.53 -109.9,12.15 -109.9,0 v -10.99 h -21.98 V 0 c 0,18.2 6.44,33.73 19.33,46.62 6.41,6.41 13.46,11.23 21.16,14.47 l -40.48,31.87 v 27.94 l 54.95,-43.23 v 43.23 h 21.98 V 77.67 L 0.01,120.9 V 92.96 L -40.47,61.09 c 7.69,-3.24 14.75,-8.06 21.16,-14.47 C -6.43,33.73 0.02,18.2 0.02,0 Z" /></g><g
           transform="translate(1064.41,539.04)"
           id="g48"><path
             id="path50"
             style="fill:#3c50e2;fill-opacity:1;fill-rule:nonzero;stroke:none"
             d="m 0,0 v -21.98 h -109.91 v -32.97 h 87.93 v -21.98 h -87.93 V -109.9 H 0 v -21.98 H -131.89 V 0.01 L 0,0.01 Z" /></g><g
           transform="translate(1097.39,462.1)"
           id="g52"><path
             id="path54"
             style="fill:#3c50e2;fill-opacity:1;fill-rule:nonzero;stroke:none"
             d="M 0,0 V -54.95 H -21.98 V 76.94 H 0 V 21.99 h 87.93 v 54.95 h 21.98 V -54.95 H 87.93 V 0 Z" /></g><g
           transform="translate(1350.1801,539.04)"
           id="g56"><path
             id="path58"
             style="fill:#3c50e2;fill-opacity:1;fill-rule:nonzero;stroke:none"
             d="m 0,0 v -131.89 h -21.98 v 104.05 l -81.97,-104.05 h -27.94 V 0 h 21.98 V -104.05 L -27.94,0 Z" /></g><g
           transform="translate(1493.0601,539.04)"
           id="g60"><path
             id="path62"
             style="fill:#3c50e2;fill-opacity:1;fill-rule:nonzero;stroke:none"
             d="m 0,0 v -21.98 h -109.91 v -32.97 h 87.93 v -21.98 h -87.93 V -109.9 H 0 v -21.98 H -131.89 V 0.01 L 0,0.01 Z" /></g><g
           transform="translate(858.87,562.94)"
           id="g64"><path
             id="path66"
             style="fill:#3c50e2;fill-opacity:1;fill-rule:nonzero;stroke:none"
             d="m 0,0 c -18.2,0 -33.74,6.44 -46.62,19.33 -12.88,12.88 -19.33,28.42 -19.33,46.62 0,18.2 6.44,33.73 19.33,46.62 12.88,12.88 28.42,19.33 46.62,19.33 18.2,0 33.74,-6.44 46.62,-19.33 C 59.5,99.68 65.95,84.14 65.95,65.95 65.95,47.76 59.51,32.21 46.62,19.33 33.74,6.44 18.2,0 0,0" /></g><g
           transform="translate(1005.36,562.94)"
           id="g68"><path
             id="path70"
             style="fill:#3c50e2;fill-opacity:1;fill-rule:nonzero;stroke:none"
             d="m 0,0 c -18.2,0 -33.74,6.44 -46.62,19.33 -12.88,12.88 -19.33,28.42 -19.33,46.62 0,18.2 6.44,33.73 19.33,46.62 12.88,12.88 28.42,19.33 46.62,19.33 18.2,0 33.74,-6.44 46.62,-19.33 C 59.5,99.68 65.95,84.14 65.95,65.95 65.95,47.76 59.51,32.21 46.62,19.33 33.74,6.44 18.2,0 0,0" /></g></g></g></g></svg>