<svg width="20px" height="20px" viewBox="0 0 20 20" fill="none" xmlns="http://www.w3.org/2000/svg" transform="rotate(0) scale(1, 1)">
<path d="M16.8685 0.868287C17.4933 0.243448 18.5073 0.243448 19.1322 0.868287C19.7568 1.49314 19.757 2.50719 19.1322 3.13196L12.264 10.0001L19.1322 16.8683C19.7568 17.4931 19.757 18.5072 19.1322 19.132C18.5074 19.7567 17.4933 19.7566 16.8685 19.132L10.0003 12.2638L3.13218 19.132C2.5074 19.7567 1.49335 19.7566 0.868509 19.132C0.243685 18.5071 0.243715 17.4931 0.868509 16.8683L7.73667 10.0001L0.868509 3.13196C0.243685 2.50714 0.243716 1.49313 0.868509 0.868287C1.49335 0.243448 2.50734 0.243448 3.13218 0.868287L10.0003 7.73645L16.8685 0.868287Z" fill="#0f1f28"/>
</svg>